<mxfile host="drawio-plugin" modified="2025-03-04T11:43:26.730Z" agent="Mozilla/5.0 (X11; Linux x86_64) AppleWebKit/537.36 (KHTML, like Gecko) Chrome/122.0.0.0 Safari/537.36" version="22.1.22" etag="NoUin4NV5CYkZTYBiDF7" type="embed">
  <diagram id="0" name="Page-1">
    <mxGraphModel dx="1465" dy="600" grid="1" gridSize="10" guides="1" tooltips="1" connect="1" arrows="1" fold="1" page="1" pageScale="1" pageWidth="4000" pageHeight="4000" math="0" shadow="0">
      <root>
        <mxCell id="0" />
        <mxCell id="1" parent="0" />
        <mxCell id="7793493849892393129" value="Webex EQ CODEC, CS-CODEC-EQ-NR++" style="rounded=0;whiteSpace=wrap;html=1;" parent="1" connectable="" vertex="1">
          <mxGeometry x="3000" y="3000" width="200" height="1200" as="geometry" />
        </mxCell>
        <mxCell id="9827696022394977204" value="Webex EQ CODEC, CS-CODEC-EQ-NR++" style="rounded=0;whiteSpace=wrap;html=1;" parent="1" connectable="" vertex="1">
          <mxGeometry x="2600" y="3020" width="160" height="80" as="geometry" />
        </mxCell>
        <mxCell id="1251793768366361198" value="Webex EQ CODEC, CS-CODEC-EQ-NR++" style="rounded=0;whiteSpace=wrap;html=1;" parent="1" connectable="" vertex="1">
          <mxGeometry x="2600" y="3140" width="160" height="80" as="geometry" />
        </mxCell>
        <mxCell id="2242015762854850597" value="DA HD 4K Plus, 60-1607-01" style="rounded=0;whiteSpace=wrap;html=1;" parent="1" connectable="" vertex="1">
          <mxGeometry x="2600" y="3260" width="160" height="80" as="geometry" />
        </mxCell>
        <mxCell id="4358732112164777731" value="232-ATSC 4K HDTV, 5114-001" style="rounded=0;whiteSpace=wrap;html=1;" parent="1" connectable="" vertex="1">
          <mxGeometry x="2600" y="3380" width="160" height="80" as="geometry" />
        </mxCell>
        <mxCell id="2230912068660757245" value="DTP 4K 230 Tx, 60-1271-12" style="rounded=0;whiteSpace=wrap;html=1;" parent="1" connectable="" vertex="1">
          <mxGeometry x="2590" y="3750" width="160" height="80" as="geometry" />
        </mxCell>
        <mxCell id="6978601834689400011" value="DTP 4K 230 Tx, 60-1271-12" style="rounded=0;whiteSpace=wrap;html=1;" parent="1" connectable="" vertex="1">
          <mxGeometry x="2600" y="3860" width="160" height="80" as="geometry" />
        </mxCell>
        <mxCell id="9840722414524162428" value="DTP 4K 230 Tx, 60-1271-12" style="rounded=0;whiteSpace=wrap;html=1;" parent="1" connectable="" vertex="1">
          <mxGeometry x="2600" y="3980" width="160" height="80" as="geometry" />
        </mxCell>
        <mxCell id="1915726145626186796" value="DTP 4K 230 Tx, 60-1271-12" style="rounded=0;whiteSpace=wrap;html=1;" parent="1" connectable="" vertex="1">
          <mxGeometry x="2600" y="4100" width="160" height="80" as="geometry" />
        </mxCell>
      </root>
    </mxGraphModel>
  </diagram>
</mxfile>
